<?xml version="1.0" encoding="UTF-8" standalone="no"?>
<svg
   data-v-2d525f6a=""
   width="25.55224"
   height="25.55224"
   viewBox="0 0 25.55224 25.55224"
   fill="none"
   class="min-w-content t-header-icon w-7 h-7"
   version="1.1"
   id="svg14"
   sodipodi:docname="Logo.svg"
   inkscape:export-filename="Logo.png"
   inkscape:export-xdpi="1923.5886"
   inkscape:export-ydpi="1923.5886"
   inkscape:version="1.4.2 (ebf0e94, 2025-05-08)"
   xmlns:inkscape="http://www.inkscape.org/namespaces/inkscape"
   xmlns:sodipodi="http://sodipodi.sourceforge.net/DTD/sodipodi-0.dtd"
   xmlns="http://www.w3.org/2000/svg"
   xmlns:svg="http://www.w3.org/2000/svg">
  <sodipodi:namedview
     id="namedview14"
     pagecolor="#ffffff"
     bordercolor="#000000"
     borderopacity="0.25"
     inkscape:showpageshadow="2"
     inkscape:pageopacity="0.0"
     inkscape:pagecheckerboard="0"
     inkscape:deskcolor="#d1d1d1"
     inkscape:zoom="32.717287"
     inkscape:cx="13.952868"
     inkscape:cy="10.132258"
     inkscape:window-width="2560"
     inkscape:window-height="1417"
     inkscape:window-x="-8"
     inkscape:window-y="-8"
     inkscape:window-maximized="1"
     inkscape:current-layer="svg14" />
  <path
     d="m 12.724671,0.6064674 c -0.361377,0 -0.718152,0.0182793 -1.071923,0.048745 V 24.930213 c 0.353771,0.03043 0.710546,0.04874 1.071923,0.04874 0.361377,0 0.718247,-0.01831 1.072017,-0.04874 V 0.65521237 c -0.35377,-0.0304657 -0.71064,-0.048745 -1.072017,-0.048745 z"
     fill="url(#paint0_linear_590_7157)"
     id="path1"
     style="fill:url(#paint0_linear_590_7157);stroke-width:0.93913" />
  <path
     d="M 19.144187,2.4130716 C 18.529151,2.0371285 17.881997,1.715993 17.210049,1.4534104 c -0.122462,0.3402017 -0.246052,0.692582 -0.37058,1.0571522 -1.408883,4.1357026 -2.12403,7.5951104 -2.12403,10.2821484 0,3.629925 1.32314,8.100747 2.491605,11.340839 0.672887,-0.263145 1.321074,-0.584797 1.937143,-0.9612 -1.090329,-3.067949 -2.284809,-7.156357 -2.284809,-10.379639 0,-3.2232725 1.19448,-7.3117463 2.284809,-10.3796394 z"
     fill="url(#paint1_linear_590_7157)"
     id="path2"
     style="fill:url(#paint1_linear_590_7157);stroke-width:0.93913" />
  <path
     d="m 10.733894,12.792711 c 0,-3.6299815 -1.3231019,-8.1008126 -2.4915485,-11.3408229 -0.672896,0.2630812 -1.3211398,0.5847238 -1.9371808,0.9611928 1.0903392,3.0678838 2.2848091,7.1563576 2.2848091,10.3796301 0,3.223282 -1.1944699,7.31169 -2.2848091,10.379639 0.6150268,0.375934 1.2622469,0.697022 1.9341192,0.959603 0.1225095,-0.33912 0.2460426,-0.691575 0.3705994,-1.057085 1.4088637,-4.13574 2.1240107,-7.595119 2.1240107,-10.282157 z"
     fill="url(#paint2_linear_590_7157)"
     id="path3"
     style="fill:url(#paint2_linear_590_7157);stroke-width:0.93913" />
  <path
     d="m 23.327917,16.919248 c -3.07349,-2.332142 -3.405754,-3.661949 -3.405754,-4.126537 0,-1.264351 1.949446,-3.1090274 4.123907,-4.6612494 C 23.769308,7.4703987 23.434696,6.8347862 23.046084,6.2319399 22.71382,6.463473 22.372353,6.7102482 22.029288,6.9707252 c -2.860589,2.1661031 -4.251065,4.0732318 -4.251065,5.8219858 0,1.748754 1.390476,3.655845 4.251065,5.821948 0.343065,0.260515 0.684532,0.507224 1.016796,0.738813 0.392932,-0.604799 0.731113,-1.243032 1.010786,-1.907185 -0.246616,-0.16754 -0.487033,-0.344191 -0.728953,-0.527039 z"
     fill="url(#paint3_linear_590_7157)"
     id="path4"
     style="fill:url(#paint3_linear_590_7157);stroke-width:0.93913" />
  <path
     d="m 7.6711479,12.792711 c 0,-1.738048 -1.3629216,-3.6391192 -4.1653416,-5.8097959 C 3.1428702,6.7011104 2.7799341,6.4345384 2.4338459,6.1877633 2.0409938,6.7890693 1.7022665,7.4236958 1.4216095,8.0842515 3.579312,9.6486541 5.5272177,11.519251 5.5272177,12.792711 c 0,1.27346 -1.9479057,3.144019 -4.1056082,4.708422 0.2796766,0.66049 0.6173774,1.29506 1.0091748,1.896478 0.3491498,-0.246709 0.7120859,-0.513328 1.0719605,-0.795161 2.8054815,-2.170611 4.1684031,-4.071691 4.1684031,-5.809739 z"
     fill="url(#paint4_linear_590_7157)"
     id="path5"
     style="fill:url(#paint4_linear_590_7157);stroke-width:0.93913" />
  <defs
     id="defs14">
    <linearGradient
       id="paint0_linear_590_7157"
       x1="12.0766"
       y1="25.9625"
       x2="12.0766"
       y2="-0.0103325"
       gradientUnits="userSpaceOnUse"
       gradientTransform="matrix(0.93912989,0,0,0.93912989,1.4069356,0.6064674)">
      <stop
         stop-color="#E5152C"
         id="stop5" />
      <stop
         offset="1"
         stop-color="#FFB200"
         id="stop6" />
    </linearGradient>
    <linearGradient
       id="paint1_linear_590_7157"
       x1="12.0766"
       y1="25.9625"
       x2="12.0766"
       y2="-0.0103325"
       gradientUnits="userSpaceOnUse"
       gradientTransform="matrix(0.93912989,0,0,0.93912989,1.4069356,0.6064674)">
      <stop
         stop-color="#E5152C"
         id="stop7" />
      <stop
         offset="1"
         stop-color="#FFB200"
         id="stop8" />
    </linearGradient>
    <linearGradient
       id="paint2_linear_590_7157"
       x1="12.0766"
       y1="25.9625"
       x2="12.0766"
       y2="-0.0103325"
       gradientUnits="userSpaceOnUse"
       gradientTransform="matrix(0.93912989,0,0,0.93912989,1.4069356,0.6064674)">
      <stop
         stop-color="#E5152C"
         id="stop9" />
      <stop
         offset="1"
         stop-color="#FFB200"
         id="stop10" />
    </linearGradient>
    <linearGradient
       id="paint3_linear_590_7157"
       x1="12.0766"
       y1="25.9625"
       x2="12.0766"
       y2="-0.0103325"
       gradientUnits="userSpaceOnUse"
       gradientTransform="matrix(0.93912989,0,0,0.93912989,1.4069356,0.6064674)">
      <stop
         stop-color="#E5152C"
         id="stop11" />
      <stop
         offset="1"
         stop-color="#FFB200"
         id="stop12" />
    </linearGradient>
    <linearGradient
       id="paint4_linear_590_7157"
       x1="12.0766"
       y1="25.9625"
       x2="12.0766"
       y2="-0.0103325"
       gradientUnits="userSpaceOnUse"
       gradientTransform="matrix(0.93912989,0,0,0.93912989,1.4069356,0.6064674)">
      <stop
         stop-color="#E5152C"
         id="stop13" />
      <stop
         offset="1"
         stop-color="#FFB200"
         id="stop14" />
    </linearGradient>
  </defs>
</svg>
